<mxfile host="app.diagrams.net" modified="2024-03-01T04:53:34.549Z" agent="Mozilla/5.0 (Windows NT 10.0; Win64; x64) AppleWebKit/537.36 (KHTML, like Gecko) Chrome/122.0.0.0 Safari/537.36" version="23.0.0" etag="7l0eCZiXylufclKce3AX" type="github">
  <diagram name="페이지-1" id="8maRnGbOnMf0VjEL36-T">
    <mxGraphModel>
      <root>
        <mxCell id="0" />
        <mxCell id="1" parent="0" />
      </root>
    </mxGraphModel>
  </diagram>
</mxfile>
